<?xml version="1.0" encoding="UTF-8" standalone="no" ?>
<!DOCTYPE svg PUBLIC "-//W3C//DTD SVG 1.1//EN" "http://www.w3.org/Graphics/SVG/1.1/DTD/svg11.dtd">
<svg xmlns="http://www.w3.org/2000/svg" xmlns:xlink="http://www.w3.org/1999/xlink" version="1.1" width="1000" height="1000" viewBox="0 0 500 500" xml:space="preserve">
<desc>Created with Fabric.js 4.6.0</desc>
<defs>
</defs>
<g transform="matrix(0.41 0 0 0.04 250.49 38.91)" id="eFq-r5hY9cA1-Fk5ieO_B"  >
<linearGradient id="SVGID_5" gradientUnits="userSpaceOnUse" gradientTransform="matrix(1 0 0 1 -583.5 -364)"  x1="0" y1="364" x2="1167" y2="364">
<stop offset="0%" style="stop-color:#ffffff;stop-opacity: 1"/>
<stop offset="50%" style="stop-color:#7e7e7e;stop-opacity: 1"/>
<stop offset="100%" style="stop-color:#000000;stop-opacity: 1"/>
</linearGradient>
<g style="opacity: 0.78;" vector-effect="non-scaling-stroke"   >
		<g transform="matrix(1 0 0 1 9 0.09)" id="FwhsJRTZTqrLBQbqYJdRA"  >
<path style="stroke: none; stroke-width: 1; stroke-dasharray: none; stroke-linecap: butt; stroke-dashoffset: 0; stroke-linejoin: miter; stroke-miterlimit: 4; fill: rgb(204,227,245); fill-rule: nonzero; opacity: 1;" vector-effect="non-scaling-stroke"  transform=" translate(-574, -339)" d="M 0 678 L 0 0 L 1148 0 L 1148 678 z" stroke-linecap="round" />
</g>
		<g transform="matrix(1 0 0 1 -565 0)" id="N-YjCns1SVjo266Mr4pgX"  >
<path style="stroke: rgb(101,152,191); stroke-width: 24; stroke-dasharray: none; stroke-linecap: butt; stroke-dashoffset: 0; stroke-linejoin: miter; stroke-miterlimit: 4; fill: none; fill-rule: nonzero; opacity: 0.15;" vector-effect="non-scaling-stroke"  transform=" translate(0, -339)" d="M 0 0 L 0 678" stroke-linecap="round" />
</g>
		<g transform="matrix(1 0 0 1 -562 0)" id="td0g9J1J5pwpKsuemTIeK"  >
<path style="stroke: rgb(101,152,191); stroke-width: 43; stroke-dasharray: none; stroke-linecap: butt; stroke-dashoffset: 0; stroke-linejoin: miter; stroke-miterlimit: 4; fill: none; fill-rule: nonzero; opacity: 0.15;" vector-effect="non-scaling-stroke"  transform=" translate(-3, -339)" d="M 3 0 L 3 678" stroke-linecap="round" />
</g>
		<g transform="matrix(1 0 0 1 -546 0)" id="DWQeinLAlFjiVfL3qyPmz"  >
<path style="stroke: rgb(101,152,191); stroke-width: 3; stroke-dasharray: none; stroke-linecap: butt; stroke-dashoffset: 0; stroke-linejoin: miter; stroke-miterlimit: 4; fill: none; fill-rule: nonzero; opacity: 0.15;" vector-effect="non-scaling-stroke"  transform=" translate(-19, -339)" d="M 19 0 L 19 678" stroke-linecap="round" />
</g>
		<g transform="matrix(1 0 0 1 -545 0)" id="3_D2juGnK6tvEc0wsC0vS"  >
<path style="stroke: rgb(101,152,191); stroke-width: 44; stroke-dasharray: none; stroke-linecap: butt; stroke-dashoffset: 0; stroke-linejoin: miter; stroke-miterlimit: 4; fill: none; fill-rule: nonzero; opacity: 0.15;" vector-effect="non-scaling-stroke"  transform=" translate(-20, -339)" d="M 20 0 L 20 678" stroke-linecap="round" />
</g>
		<g transform="matrix(1 0 0 1 -536 0)" id="92UAyJL7_4mLBCOHk7wgw"  >
<path style="stroke: rgb(101,152,191); stroke-width: 43; stroke-dasharray: none; stroke-linecap: butt; stroke-dashoffset: 0; stroke-linejoin: miter; stroke-miterlimit: 4; fill: none; fill-rule: nonzero; opacity: 0.15;" vector-effect="non-scaling-stroke"  transform=" translate(-29, -339)" d="M 29 0 L 29 678" stroke-linecap="round" />
</g>
		<g transform="matrix(1 0 0 1 -525 0)" id="-5vAY6eNnvzzuM0PlSyzj"  >
<path style="stroke: rgb(101,152,191); stroke-width: 45; stroke-dasharray: none; stroke-linecap: butt; stroke-dashoffset: 0; stroke-linejoin: miter; stroke-miterlimit: 4; fill: none; fill-rule: nonzero; opacity: 0.15;" vector-effect="non-scaling-stroke"  transform=" translate(-40, -339)" d="M 40 0 L 40 678" stroke-linecap="round" />
</g>
		<g transform="matrix(1 0 0 1 -523 0)" id="jY55m6O8edH43wB6Bx5Fl"  >
<path style="stroke: rgb(101,152,191); stroke-width: 15; stroke-dasharray: none; stroke-linecap: butt; stroke-dashoffset: 0; stroke-linejoin: miter; stroke-miterlimit: 4; fill: none; fill-rule: nonzero; opacity: 0.15;" vector-effect="non-scaling-stroke"  transform=" translate(-42, -339)" d="M 42 0 L 42 678" stroke-linecap="round" />
</g>
		<g transform="matrix(1 0 0 1 -506 0)" id="rGPkDmCYcD42o_XpUW2Xw"  >
<path style="stroke: rgb(101,152,191); stroke-width: 44; stroke-dasharray: none; stroke-linecap: butt; stroke-dashoffset: 0; stroke-linejoin: miter; stroke-miterlimit: 4; fill: none; fill-rule: nonzero; opacity: 0.15;" vector-effect="non-scaling-stroke"  transform=" translate(-59, -339)" d="M 59 0 L 59 678" stroke-linecap="round" />
</g>
		<g transform="matrix(1 0 0 1 -494 0)" id="gzw09hZOYCmj0ltILCx8I"  >
<path style="stroke: rgb(101,152,191); stroke-width: 4; stroke-dasharray: none; stroke-linecap: butt; stroke-dashoffset: 0; stroke-linejoin: miter; stroke-miterlimit: 4; fill: none; fill-rule: nonzero; opacity: 0.15;" vector-effect="non-scaling-stroke"  transform=" translate(-71, -339)" d="M 71 0 L 71 678" stroke-linecap="round" />
</g>
		<g transform="matrix(1 0 0 1 -477 0)" id="VzBKkVnpITIKEQwjXt3Im"  >
<path style="stroke: rgb(101,152,191); stroke-width: 40; stroke-dasharray: none; stroke-linecap: butt; stroke-dashoffset: 0; stroke-linejoin: miter; stroke-miterlimit: 4; fill: none; fill-rule: nonzero; opacity: 0.15;" vector-effect="non-scaling-stroke"  transform=" translate(-88, -339)" d="M 88 0 L 88 678" stroke-linecap="round" />
</g>
		<g transform="matrix(1 0 0 1 -471 0)" id="EtpEL59r-dInl3zk9x0qJ"  >
<path style="stroke: rgb(101,152,191); stroke-width: 29; stroke-dasharray: none; stroke-linecap: butt; stroke-dashoffset: 0; stroke-linejoin: miter; stroke-miterlimit: 4; fill: none; fill-rule: nonzero; opacity: 0.15;" vector-effect="non-scaling-stroke"  transform=" translate(-94, -339)" d="M 94 0 L 94 678" stroke-linecap="round" />
</g>
		<g transform="matrix(1 0 0 1 -459 0)" id="taygCKD1lIjKRwLkAunwr"  >
<path style="stroke: rgb(101,152,191); stroke-width: 2; stroke-dasharray: none; stroke-linecap: butt; stroke-dashoffset: 0; stroke-linejoin: miter; stroke-miterlimit: 4; fill: none; fill-rule: nonzero; opacity: 0.15;" vector-effect="non-scaling-stroke"  transform=" translate(-106, -339)" d="M 106 0 L 106 678" stroke-linecap="round" />
</g>
		<g transform="matrix(1 0 0 1 -452 0)" id="Rpr7zbFanCZHgIokGOCjl"  >
<path style="stroke: rgb(101,152,191); stroke-width: 41; stroke-dasharray: none; stroke-linecap: butt; stroke-dashoffset: 0; stroke-linejoin: miter; stroke-miterlimit: 4; fill: none; fill-rule: nonzero; opacity: 0.15;" vector-effect="non-scaling-stroke"  transform=" translate(-113, -339)" d="M 113 0 L 113 678" stroke-linecap="round" />
</g>
		<g transform="matrix(1 0 0 1 -442 0)" id="02r_qWERALaSPpUMqO_jr"  >
<path style="stroke: rgb(101,152,191); stroke-width: 29; stroke-dasharray: none; stroke-linecap: butt; stroke-dashoffset: 0; stroke-linejoin: miter; stroke-miterlimit: 4; fill: none; fill-rule: nonzero; opacity: 0.15;" vector-effect="non-scaling-stroke"  transform=" translate(-123, -339)" d="M 123 0 L 123 678" stroke-linecap="round" />
</g>
		<g transform="matrix(1 0 0 1 -426 0)" id="OPISXkoR67jvs-QyTI39j"  >
<path style="stroke: rgb(101,152,191); stroke-width: 29; stroke-dasharray: none; stroke-linecap: butt; stroke-dashoffset: 0; stroke-linejoin: miter; stroke-miterlimit: 4; fill: none; fill-rule: nonzero; opacity: 0.15;" vector-effect="non-scaling-stroke"  transform=" translate(-139, -339)" d="M 139 0 L 139 678" stroke-linecap="round" />
</g>
		<g transform="matrix(1 0 0 1 -412 0)" id="H_YVReDO02O13aAdZrd5F"  >
<path style="stroke: rgb(101,152,191); stroke-width: 11; stroke-dasharray: none; stroke-linecap: butt; stroke-dashoffset: 0; stroke-linejoin: miter; stroke-miterlimit: 4; fill: none; fill-rule: nonzero; opacity: 0.15;" vector-effect="non-scaling-stroke"  transform=" translate(-153, -339)" d="M 153 0 L 153 678" stroke-linecap="round" />
</g>
		<g transform="matrix(1 0 0 1 -394 0)" id="henerzqCNzRZv1OP9QxOk"  >
<path style="stroke: rgb(101,152,191); stroke-width: 31; stroke-dasharray: none; stroke-linecap: butt; stroke-dashoffset: 0; stroke-linejoin: miter; stroke-miterlimit: 4; fill: none; fill-rule: nonzero; opacity: 0.15;" vector-effect="non-scaling-stroke"  transform=" translate(-171, -339)" d="M 171 0 L 171 678" stroke-linecap="round" />
</g>
		<g transform="matrix(1 0 0 1 -388 0)" id="28axrhsUMSRsZt-eGX7gU"  >
<path style="stroke: rgb(101,152,191); stroke-width: 41; stroke-dasharray: none; stroke-linecap: butt; stroke-dashoffset: 0; stroke-linejoin: miter; stroke-miterlimit: 4; fill: none; fill-rule: nonzero; opacity: 0.15;" vector-effect="non-scaling-stroke"  transform=" translate(-177, -339)" d="M 177 0 L 177 678" stroke-linecap="round" />
</g>
		<g transform="matrix(1 0 0 1 -377 0)" id="ZU7paCfbD-iVUoskJ6tD_"  >
<path style="stroke: rgb(101,152,191); stroke-width: 23; stroke-dasharray: none; stroke-linecap: butt; stroke-dashoffset: 0; stroke-linejoin: miter; stroke-miterlimit: 4; fill: none; fill-rule: nonzero; opacity: 0.15;" vector-effect="non-scaling-stroke"  transform=" translate(-188, -339)" d="M 188 0 L 188 678" stroke-linecap="round" />
</g>
		<g transform="matrix(1 0 0 1 -357 0)" id="AVc2y0xzoHyoCQzBmNUSW"  >
<path style="stroke: rgb(101,152,191); stroke-width: 4; stroke-dasharray: none; stroke-linecap: butt; stroke-dashoffset: 0; stroke-linejoin: miter; stroke-miterlimit: 4; fill: none; fill-rule: nonzero; opacity: 0.15;" vector-effect="non-scaling-stroke"  transform=" translate(-208, -339)" d="M 208 0 L 208 678" stroke-linecap="round" />
</g>
		<g transform="matrix(1 0 0 1 -337 0)" id="G2sSUfRG3Gsr3oEpM95Y3"  >
<path style="stroke: rgb(101,152,191); stroke-width: 42; stroke-dasharray: none; stroke-linecap: butt; stroke-dashoffset: 0; stroke-linejoin: miter; stroke-miterlimit: 4; fill: none; fill-rule: nonzero; opacity: 0.15;" vector-effect="non-scaling-stroke"  transform=" translate(-228, -339)" d="M 228 0 L 228 678" stroke-linecap="round" />
</g>
		<g transform="matrix(1 0 0 1 -335 0)" id="VU8WGZKzYkqigBQzKeEL1"  >
<path style="stroke: rgb(101,152,191); stroke-width: 50; stroke-dasharray: none; stroke-linecap: butt; stroke-dashoffset: 0; stroke-linejoin: miter; stroke-miterlimit: 4; fill: none; fill-rule: nonzero; opacity: 0.15;" vector-effect="non-scaling-stroke"  transform=" translate(-230, -339)" d="M 230 0 L 230 678" stroke-linecap="round" />
</g>
		<g transform="matrix(1 0 0 1 -316 0)" id="wXNhbaUTxadJNekji3-Tm"  >
<path style="stroke: rgb(101,152,191); stroke-width: 34; stroke-dasharray: none; stroke-linecap: butt; stroke-dashoffset: 0; stroke-linejoin: miter; stroke-miterlimit: 4; fill: none; fill-rule: nonzero; opacity: 0.15;" vector-effect="non-scaling-stroke"  transform=" translate(-249, -339)" d="M 249 0 L 249 678" stroke-linecap="round" />
</g>
		<g transform="matrix(1 0 0 1 -309 0)" id="ZCAl0OCxW5TFjEJ-uy-Yu"  >
<path style="stroke: rgb(101,152,191); stroke-width: 26; stroke-dasharray: none; stroke-linecap: butt; stroke-dashoffset: 0; stroke-linejoin: miter; stroke-miterlimit: 4; fill: none; fill-rule: nonzero; opacity: 0.15;" vector-effect="non-scaling-stroke"  transform=" translate(-256, -339)" d="M 256 0 L 256 678" stroke-linecap="round" />
</g>
		<g transform="matrix(1 0 0 1 -309 0)" id="-RUW7gwU8l4PHihrh_rvy"  >
<path style="stroke: rgb(101,152,191); stroke-width: 47; stroke-dasharray: none; stroke-linecap: butt; stroke-dashoffset: 0; stroke-linejoin: miter; stroke-miterlimit: 4; fill: none; fill-rule: nonzero; opacity: 0.15;" vector-effect="non-scaling-stroke"  transform=" translate(-256, -339)" d="M 256 0 L 256 678" stroke-linecap="round" />
</g>
		<g transform="matrix(1 0 0 1 -297 0)" id="HXCodV4mpblAlgcvu6iKC"  >
<path style="stroke: rgb(101,152,191); stroke-width: 28; stroke-dasharray: none; stroke-linecap: butt; stroke-dashoffset: 0; stroke-linejoin: miter; stroke-miterlimit: 4; fill: none; fill-rule: nonzero; opacity: 0.15;" vector-effect="non-scaling-stroke"  transform=" translate(-268, -339)" d="M 268 0 L 268 678" stroke-linecap="round" />
</g>
		<g transform="matrix(1 0 0 1 -285 0)" id="UMsM59VkScHQmoTGUbPFk"  >
<path style="stroke: rgb(101,152,191); stroke-width: 26; stroke-dasharray: none; stroke-linecap: butt; stroke-dashoffset: 0; stroke-linejoin: miter; stroke-miterlimit: 4; fill: none; fill-rule: nonzero; opacity: 0.15;" vector-effect="non-scaling-stroke"  transform=" translate(-280, -339)" d="M 280 0 L 280 678" stroke-linecap="round" />
</g>
		<g transform="matrix(1 0 0 1 -285 0)" id="UQgiMcF431sZU9zE3q1Zn"  >
<path style="stroke: rgb(101,152,191); stroke-width: 14; stroke-dasharray: none; stroke-linecap: butt; stroke-dashoffset: 0; stroke-linejoin: miter; stroke-miterlimit: 4; fill: none; fill-rule: nonzero; opacity: 0.15;" vector-effect="non-scaling-stroke"  transform=" translate(-280, -339)" d="M 280 0 L 280 678" stroke-linecap="round" />
</g>
		<g transform="matrix(1 0 0 1 -265 0)" id="3odl1fLfWhiFXwbmYYi00"  >
<path style="stroke: rgb(101,152,191); stroke-width: 20; stroke-dasharray: none; stroke-linecap: butt; stroke-dashoffset: 0; stroke-linejoin: miter; stroke-miterlimit: 4; fill: none; fill-rule: nonzero; opacity: 0.15;" vector-effect="non-scaling-stroke"  transform=" translate(-300, -339)" d="M 300 0 L 300 678" stroke-linecap="round" />
</g>
		<g transform="matrix(1 0 0 1 -253 0)" id="BkzRxzJrPGrQFTunD2C-U"  >
<path style="stroke: rgb(101,152,191); stroke-width: 31; stroke-dasharray: none; stroke-linecap: butt; stroke-dashoffset: 0; stroke-linejoin: miter; stroke-miterlimit: 4; fill: none; fill-rule: nonzero; opacity: 0.15;" vector-effect="non-scaling-stroke"  transform=" translate(-312, -339)" d="M 312 0 L 312 678" stroke-linecap="round" />
</g>
		<g transform="matrix(1 0 0 1 -237 0)" id="Cftfk-cQb7chMxFNq3iQQ"  >
<path style="stroke: rgb(101,152,191); stroke-width: 41; stroke-dasharray: none; stroke-linecap: butt; stroke-dashoffset: 0; stroke-linejoin: miter; stroke-miterlimit: 4; fill: none; fill-rule: nonzero; opacity: 0.15;" vector-effect="non-scaling-stroke"  transform=" translate(-328, -339)" d="M 328 0 L 328 678" stroke-linecap="round" />
</g>
		<g transform="matrix(1 0 0 1 -224 0)" id="0KIqoqUNtKZo2db5NHAQq"  >
<path style="stroke: rgb(101,152,191); stroke-width: 43; stroke-dasharray: none; stroke-linecap: butt; stroke-dashoffset: 0; stroke-linejoin: miter; stroke-miterlimit: 4; fill: none; fill-rule: nonzero; opacity: 0.15;" vector-effect="non-scaling-stroke"  transform=" translate(-341, -339)" d="M 341 0 L 341 678" stroke-linecap="round" />
</g>
		<g transform="matrix(1 0 0 1 -215 0)" id="IGKlGbgYVRO0FPOrTJsZn"  >
<path style="stroke: rgb(101,152,191); stroke-width: 30; stroke-dasharray: none; stroke-linecap: butt; stroke-dashoffset: 0; stroke-linejoin: miter; stroke-miterlimit: 4; fill: none; fill-rule: nonzero; opacity: 0.15;" vector-effect="non-scaling-stroke"  transform=" translate(-350, -339)" d="M 350 0 L 350 678" stroke-linecap="round" />
</g>
		<g transform="matrix(1 0 0 1 -215 0)" id="QJe7sIfLNaCJ1Lb2YvA4R"  >
<path style="stroke: rgb(101,152,191); stroke-width: 4; stroke-dasharray: none; stroke-linecap: butt; stroke-dashoffset: 0; stroke-linejoin: miter; stroke-miterlimit: 4; fill: none; fill-rule: nonzero; opacity: 0.15;" vector-effect="non-scaling-stroke"  transform=" translate(-350, -339)" d="M 350 0 L 350 678" stroke-linecap="round" />
</g>
		<g transform="matrix(1 0 0 1 -206 0)" id="pee6W_ODX2EqmtKBrDAEc"  >
<path style="stroke: rgb(101,152,191); stroke-width: 24; stroke-dasharray: none; stroke-linecap: butt; stroke-dashoffset: 0; stroke-linejoin: miter; stroke-miterlimit: 4; fill: none; fill-rule: nonzero; opacity: 0.15;" vector-effect="non-scaling-stroke"  transform=" translate(-359, -339)" d="M 359 0 L 359 678" stroke-linecap="round" />
</g>
		<g transform="matrix(1 0 0 1 -192 0)" id="DnMHv01z_rCXvoNfLR-WU"  >
<path style="stroke: rgb(101,152,191); stroke-width: 24; stroke-dasharray: none; stroke-linecap: butt; stroke-dashoffset: 0; stroke-linejoin: miter; stroke-miterlimit: 4; fill: none; fill-rule: nonzero; opacity: 0.15;" vector-effect="non-scaling-stroke"  transform=" translate(-373, -339)" d="M 373 0 L 373 678" stroke-linecap="round" />
</g>
		<g transform="matrix(1 0 0 1 -177 0)" id="B7zr2tJF9a4gjEBqVlK2N"  >
<path style="stroke: rgb(101,152,191); stroke-width: 23; stroke-dasharray: none; stroke-linecap: butt; stroke-dashoffset: 0; stroke-linejoin: miter; stroke-miterlimit: 4; fill: none; fill-rule: nonzero; opacity: 0.15;" vector-effect="non-scaling-stroke"  transform=" translate(-388, -339)" d="M 388 0 L 388 678" stroke-linecap="round" />
</g>
		<g transform="matrix(1 0 0 1 -167 0)" id="1vEK5RPOHrRL5nqEUWkU0"  >
<path style="stroke: rgb(101,152,191); stroke-width: 22; stroke-dasharray: none; stroke-linecap: butt; stroke-dashoffset: 0; stroke-linejoin: miter; stroke-miterlimit: 4; fill: none; fill-rule: nonzero; opacity: 0.15;" vector-effect="non-scaling-stroke"  transform=" translate(-398, -339)" d="M 398 0 L 398 678" stroke-linecap="round" />
</g>
		<g transform="matrix(1 0 0 1 -160 0)" id="MxO8RLXpkQxk2PuxS8I1Y"  >
<path style="stroke: rgb(101,152,191); stroke-width: 2; stroke-dasharray: none; stroke-linecap: butt; stroke-dashoffset: 0; stroke-linejoin: miter; stroke-miterlimit: 4; fill: none; fill-rule: nonzero; opacity: 0.15;" vector-effect="non-scaling-stroke"  transform=" translate(-405, -339)" d="M 405 0 L 405 678" stroke-linecap="round" />
</g>
		<g transform="matrix(1 0 0 1 -153 0)" id="OsryYkRjJJLV7I0x0xwMe"  >
<path style="stroke: rgb(101,152,191); stroke-width: 47; stroke-dasharray: none; stroke-linecap: butt; stroke-dashoffset: 0; stroke-linejoin: miter; stroke-miterlimit: 4; fill: none; fill-rule: nonzero; opacity: 0.15;" vector-effect="non-scaling-stroke"  transform=" translate(-412, -339)" d="M 412 0 L 412 678" stroke-linecap="round" />
</g>
		<g transform="matrix(1 0 0 1 -151 0)" id="Ok6a0HPfszYM0VwJ_stUy"  >
<path style="stroke: rgb(101,152,191); stroke-width: 29; stroke-dasharray: none; stroke-linecap: butt; stroke-dashoffset: 0; stroke-linejoin: miter; stroke-miterlimit: 4; fill: none; fill-rule: nonzero; opacity: 0.15;" vector-effect="non-scaling-stroke"  transform=" translate(-414, -339)" d="M 414 0 L 414 678" stroke-linecap="round" />
</g>
		<g transform="matrix(1 0 0 1 -143 0)" id="q9d8OrmqtfJ1-SdMwCZIk"  >
<path style="stroke: rgb(101,152,191); stroke-width: 25; stroke-dasharray: none; stroke-linecap: butt; stroke-dashoffset: 0; stroke-linejoin: miter; stroke-miterlimit: 4; fill: none; fill-rule: nonzero; opacity: 0.15;" vector-effect="non-scaling-stroke"  transform=" translate(-422, -339)" d="M 422 0 L 422 678" stroke-linecap="round" />
</g>
		<g transform="matrix(1 0 0 1 -130 0)" id="eNBvKJwxL6t89myhMToaB"  >
<path style="stroke: rgb(101,152,191); stroke-width: 14; stroke-dasharray: none; stroke-linecap: butt; stroke-dashoffset: 0; stroke-linejoin: miter; stroke-miterlimit: 4; fill: none; fill-rule: nonzero; opacity: 0.15;" vector-effect="non-scaling-stroke"  transform=" translate(-435, -339)" d="M 435 0 L 435 678" stroke-linecap="round" />
</g>
		<g transform="matrix(1 0 0 1 -128 0)" id="ZWzu8oVO_7aLcpaarohQd"  >
<path style="stroke: rgb(101,152,191); stroke-width: 27; stroke-dasharray: none; stroke-linecap: butt; stroke-dashoffset: 0; stroke-linejoin: miter; stroke-miterlimit: 4; fill: none; fill-rule: nonzero; opacity: 0.15;" vector-effect="non-scaling-stroke"  transform=" translate(-437, -339)" d="M 437 0 L 437 678" stroke-linecap="round" />
</g>
		<g transform="matrix(1 0 0 1 -124 0)" id="FOeqhOpQIzxHCsJxtbqAE"  >
<path style="stroke: rgb(101,152,191); stroke-width: 50; stroke-dasharray: none; stroke-linecap: butt; stroke-dashoffset: 0; stroke-linejoin: miter; stroke-miterlimit: 4; fill: none; fill-rule: nonzero; opacity: 0.15;" vector-effect="non-scaling-stroke"  transform=" translate(-441, -339)" d="M 441 0 L 441 678" stroke-linecap="round" />
</g>
		<g transform="matrix(1 0 0 1 -111 0)" id="WMwgVIk2Ug2nxkZka0_hZ"  >
<path style="stroke: rgb(101,152,191); stroke-width: 42; stroke-dasharray: none; stroke-linecap: butt; stroke-dashoffset: 0; stroke-linejoin: miter; stroke-miterlimit: 4; fill: none; fill-rule: nonzero; opacity: 0.15;" vector-effect="non-scaling-stroke"  transform=" translate(-454, -339)" d="M 454 0 L 454 678" stroke-linecap="round" />
</g>
		<g transform="matrix(1 0 0 1 -94 0)" id="whIR7TTDWV1gyjlqp8bY1"  >
<path style="stroke: rgb(101,152,191); stroke-width: 10; stroke-dasharray: none; stroke-linecap: butt; stroke-dashoffset: 0; stroke-linejoin: miter; stroke-miterlimit: 4; fill: none; fill-rule: nonzero; opacity: 0.15;" vector-effect="non-scaling-stroke"  transform=" translate(-471, -339)" d="M 471 0 L 471 678" stroke-linecap="round" />
</g>
		<g transform="matrix(1 0 0 1 -77 0)" id="XVrgjevRuFdhDe_zjVjZ4"  >
<path style="stroke: rgb(101,152,191); stroke-width: 37; stroke-dasharray: none; stroke-linecap: butt; stroke-dashoffset: 0; stroke-linejoin: miter; stroke-miterlimit: 4; fill: none; fill-rule: nonzero; opacity: 0.15;" vector-effect="non-scaling-stroke"  transform=" translate(-488, -339)" d="M 488 0 L 488 678" stroke-linecap="round" />
</g>
		<g transform="matrix(1 0 0 1 -70 0)" id="BfMESutbKHUTNY0F8JUS2"  >
<path style="stroke: rgb(101,152,191); stroke-width: 47; stroke-dasharray: none; stroke-linecap: butt; stroke-dashoffset: 0; stroke-linejoin: miter; stroke-miterlimit: 4; fill: none; fill-rule: nonzero; opacity: 0.15;" vector-effect="non-scaling-stroke"  transform=" translate(-495, -339)" d="M 495 0 L 495 678" stroke-linecap="round" />
</g>
		<g transform="matrix(1 0 0 1 -64 0)" id="NPkvuNaDa8_8b8tRmX_sN"  >
<path style="stroke: rgb(101,152,191); stroke-width: 17; stroke-dasharray: none; stroke-linecap: butt; stroke-dashoffset: 0; stroke-linejoin: miter; stroke-miterlimit: 4; fill: none; fill-rule: nonzero; opacity: 0.15;" vector-effect="non-scaling-stroke"  transform=" translate(-501, -339)" d="M 501 0 L 501 678" stroke-linecap="round" />
</g>
		<g transform="matrix(1 0 0 1 -44 0)" id="8OlVrdiySkK5JYOCOmrAg"  >
<path style="stroke: rgb(101,152,191); stroke-width: 25; stroke-dasharray: none; stroke-linecap: butt; stroke-dashoffset: 0; stroke-linejoin: miter; stroke-miterlimit: 4; fill: none; fill-rule: nonzero; opacity: 0.15;" vector-effect="non-scaling-stroke"  transform=" translate(-521, -339)" d="M 521 0 L 521 678" stroke-linecap="round" />
</g>
		<g transform="matrix(1 0 0 1 -36 0)" id="0kEj8ldUfr7DJY8HXhEMC"  >
<path style="stroke: rgb(101,152,191); stroke-width: 22; stroke-dasharray: none; stroke-linecap: butt; stroke-dashoffset: 0; stroke-linejoin: miter; stroke-miterlimit: 4; fill: none; fill-rule: nonzero; opacity: 0.15;" vector-effect="non-scaling-stroke"  transform=" translate(-529, -339)" d="M 529 0 L 529 678" stroke-linecap="round" />
</g>
		<g transform="matrix(1 0 0 1 -17 0)" id="RZJtFRtfSsuFNlemjpXZm"  >
<path style="stroke: rgb(101,152,191); stroke-width: 14; stroke-dasharray: none; stroke-linecap: butt; stroke-dashoffset: 0; stroke-linejoin: miter; stroke-miterlimit: 4; fill: none; fill-rule: nonzero; opacity: 0.15;" vector-effect="non-scaling-stroke"  transform=" translate(-548, -339)" d="M 548 0 L 548 678" stroke-linecap="round" />
</g>
		<g transform="matrix(1 0 0 1 0 0)" id="fii1RROt56qhJU0N5D4pf"  >
<path style="stroke: rgb(101,152,191); stroke-width: 49; stroke-dasharray: none; stroke-linecap: butt; stroke-dashoffset: 0; stroke-linejoin: miter; stroke-miterlimit: 4; fill: none; fill-rule: nonzero; opacity: 0.15;" vector-effect="non-scaling-stroke"  transform=" translate(-565, -339)" d="M 565 0 L 565 678" stroke-linecap="round" />
</g>
		<g transform="matrix(1 0 0 1 3 0)" id="kUMWk94ZjjGu27sWBT0LB"  >
<path style="stroke: rgb(101,152,191); stroke-width: 32; stroke-dasharray: none; stroke-linecap: butt; stroke-dashoffset: 0; stroke-linejoin: miter; stroke-miterlimit: 4; fill: none; fill-rule: nonzero; opacity: 0.15;" vector-effect="non-scaling-stroke"  transform=" translate(-568, -339)" d="M 568 0 L 568 678" stroke-linecap="round" />
</g>
		<g transform="matrix(1 0 0 1 8 0)" id="DtdqbmR9VYpeMdrK6p8Kl"  >
<path style="stroke: rgb(101,152,191); stroke-width: 50; stroke-dasharray: none; stroke-linecap: butt; stroke-dashoffset: 0; stroke-linejoin: miter; stroke-miterlimit: 4; fill: none; fill-rule: nonzero; opacity: 0.15;" vector-effect="non-scaling-stroke"  transform=" translate(-573, -339)" d="M 573 0 L 573 678" stroke-linecap="round" />
</g>
		<g transform="matrix(1 0 0 1 20 0)" id="jJBVeXs6qK0yLeSr3d2sC"  >
<path style="stroke: rgb(101,152,191); stroke-width: 3; stroke-dasharray: none; stroke-linecap: butt; stroke-dashoffset: 0; stroke-linejoin: miter; stroke-miterlimit: 4; fill: none; fill-rule: nonzero; opacity: 0.15;" vector-effect="non-scaling-stroke"  transform=" translate(-585, -339)" d="M 585 0 L 585 678" stroke-linecap="round" />
</g>
		<g transform="matrix(1 0 0 1 24 0)" id="HT3Y6nJ97RnbsQcFfxkuU"  >
<path style="stroke: rgb(101,152,191); stroke-width: 16; stroke-dasharray: none; stroke-linecap: butt; stroke-dashoffset: 0; stroke-linejoin: miter; stroke-miterlimit: 4; fill: none; fill-rule: nonzero; opacity: 0.15;" vector-effect="non-scaling-stroke"  transform=" translate(-589, -339)" d="M 589 0 L 589 678" stroke-linecap="round" />
</g>
		<g transform="matrix(1 0 0 1 37 0)" id="E0Dv987yzNB6nmBN0RiJt"  >
<path style="stroke: rgb(101,152,191); stroke-width: 43; stroke-dasharray: none; stroke-linecap: butt; stroke-dashoffset: 0; stroke-linejoin: miter; stroke-miterlimit: 4; fill: none; fill-rule: nonzero; opacity: 0.15;" vector-effect="non-scaling-stroke"  transform=" translate(-602, -339)" d="M 602 0 L 602 678" stroke-linecap="round" />
</g>
		<g transform="matrix(1 0 0 1 49 0)" id="orZzXEjqfphGgQnV4KoVU"  >
<path style="stroke: rgb(101,152,191); stroke-width: 22; stroke-dasharray: none; stroke-linecap: butt; stroke-dashoffset: 0; stroke-linejoin: miter; stroke-miterlimit: 4; fill: none; fill-rule: nonzero; opacity: 0.15;" vector-effect="non-scaling-stroke"  transform=" translate(-614, -339)" d="M 614 0 L 614 678" stroke-linecap="round" />
</g>
		<g transform="matrix(1 0 0 1 67 0)" id="gcg2oKicWOT5QGZL7ANuG"  >
<path style="stroke: rgb(101,152,191); stroke-width: 9; stroke-dasharray: none; stroke-linecap: butt; stroke-dashoffset: 0; stroke-linejoin: miter; stroke-miterlimit: 4; fill: none; fill-rule: nonzero; opacity: 0.15;" vector-effect="non-scaling-stroke"  transform=" translate(-632, -339)" d="M 632 0 L 632 678" stroke-linecap="round" />
</g>
		<g transform="matrix(1 0 0 1 80 0)" id="XwXz8zQBkdAdtaT5iRW1_"  >
<path style="stroke: rgb(101,152,191); stroke-width: 43; stroke-dasharray: none; stroke-linecap: butt; stroke-dashoffset: 0; stroke-linejoin: miter; stroke-miterlimit: 4; fill: none; fill-rule: nonzero; opacity: 0.15;" vector-effect="non-scaling-stroke"  transform=" translate(-645, -339)" d="M 645 0 L 645 678" stroke-linecap="round" />
</g>
		<g transform="matrix(1 0 0 1 86 0)" id="N6DYGPd1a4P-NupR5LO32"  >
<path style="stroke: rgb(101,152,191); stroke-width: 4; stroke-dasharray: none; stroke-linecap: butt; stroke-dashoffset: 0; stroke-linejoin: miter; stroke-miterlimit: 4; fill: none; fill-rule: nonzero; opacity: 0.15;" vector-effect="non-scaling-stroke"  transform=" translate(-651, -339)" d="M 651 0 L 651 678" stroke-linecap="round" />
</g>
		<g transform="matrix(1 0 0 1 95 0)" id="7V7h8frN-KyknmhADRP-A"  >
<path style="stroke: rgb(101,152,191); stroke-width: 12; stroke-dasharray: none; stroke-linecap: butt; stroke-dashoffset: 0; stroke-linejoin: miter; stroke-miterlimit: 4; fill: none; fill-rule: nonzero; opacity: 0.15;" vector-effect="non-scaling-stroke"  transform=" translate(-660, -339)" d="M 660 0 L 660 678" stroke-linecap="round" />
</g>
		<g transform="matrix(1 0 0 1 99 0)" id="5Hyv19Kjl7VSdA-_kQ0GZ"  >
<path style="stroke: rgb(101,152,191); stroke-width: 31; stroke-dasharray: none; stroke-linecap: butt; stroke-dashoffset: 0; stroke-linejoin: miter; stroke-miterlimit: 4; fill: none; fill-rule: nonzero; opacity: 0.15;" vector-effect="non-scaling-stroke"  transform=" translate(-664, -339)" d="M 664 0 L 664 678" stroke-linecap="round" />
</g>
		<g transform="matrix(1 0 0 1 117 0)" id="QAhdbxSIKQzONAf-B3cDF"  >
<path style="stroke: rgb(101,152,191); stroke-width: 26; stroke-dasharray: none; stroke-linecap: butt; stroke-dashoffset: 0; stroke-linejoin: miter; stroke-miterlimit: 4; fill: none; fill-rule: nonzero; opacity: 0.15;" vector-effect="non-scaling-stroke"  transform=" translate(-682, -339)" d="M 682 0 L 682 678" stroke-linecap="round" />
</g>
		<g transform="matrix(1 0 0 1 125 0)" id="q_iILcWhT32bOxybunRRz"  >
<path style="stroke: rgb(101,152,191); stroke-width: 10; stroke-dasharray: none; stroke-linecap: butt; stroke-dashoffset: 0; stroke-linejoin: miter; stroke-miterlimit: 4; fill: none; fill-rule: nonzero; opacity: 0.15;" vector-effect="non-scaling-stroke"  transform=" translate(-690, -339)" d="M 690 0 L 690 678" stroke-linecap="round" />
</g>
		<g transform="matrix(1 0 0 1 144 0)" id="ZeJe7wPyvIDInIvtzw8SY"  >
<path style="stroke: rgb(101,152,191); stroke-width: 31; stroke-dasharray: none; stroke-linecap: butt; stroke-dashoffset: 0; stroke-linejoin: miter; stroke-miterlimit: 4; fill: none; fill-rule: nonzero; opacity: 0.15;" vector-effect="non-scaling-stroke"  transform=" translate(-709, -339)" d="M 709 0 L 709 678" stroke-linecap="round" />
</g>
		<g transform="matrix(1 0 0 1 164 0)" id="LuJbs9op2RGWKDV4FXTim"  >
<path style="stroke: rgb(101,152,191); stroke-width: 45; stroke-dasharray: none; stroke-linecap: butt; stroke-dashoffset: 0; stroke-linejoin: miter; stroke-miterlimit: 4; fill: none; fill-rule: nonzero; opacity: 0.15;" vector-effect="non-scaling-stroke"  transform=" translate(-729, -339)" d="M 729 0 L 729 678" stroke-linecap="round" />
</g>
		<g transform="matrix(1 0 0 1 179 0)" id="DbYF7laC7wDIUPbwPde6o"  >
<path style="stroke: rgb(101,152,191); stroke-width: 45; stroke-dasharray: none; stroke-linecap: butt; stroke-dashoffset: 0; stroke-linejoin: miter; stroke-miterlimit: 4; fill: none; fill-rule: nonzero; opacity: 0.15;" vector-effect="non-scaling-stroke"  transform=" translate(-744, -339)" d="M 744 0 L 744 678" stroke-linecap="round" />
</g>
		<g transform="matrix(1 0 0 1 199 0)" id="YNhPBWdEAOIiVfJrOLDp2"  >
<path style="stroke: rgb(101,152,191); stroke-width: 40; stroke-dasharray: none; stroke-linecap: butt; stroke-dashoffset: 0; stroke-linejoin: miter; stroke-miterlimit: 4; fill: none; fill-rule: nonzero; opacity: 0.15;" vector-effect="non-scaling-stroke"  transform=" translate(-764, -339)" d="M 764 0 L 764 678" stroke-linecap="round" />
</g>
		<g transform="matrix(1 0 0 1 218 0)" id="WhjwdCRl4WDNHbG0o5i_t"  >
<path style="stroke: rgb(101,152,191); stroke-width: 12; stroke-dasharray: none; stroke-linecap: butt; stroke-dashoffset: 0; stroke-linejoin: miter; stroke-miterlimit: 4; fill: none; fill-rule: nonzero; opacity: 0.15;" vector-effect="non-scaling-stroke"  transform=" translate(-783, -339)" d="M 783 0 L 783 678" stroke-linecap="round" />
</g>
		<g transform="matrix(1 0 0 1 224 0)" id="aaJWhTyJQhPFEtQJILnhw"  >
<path style="stroke: rgb(101,152,191); stroke-width: 47; stroke-dasharray: none; stroke-linecap: butt; stroke-dashoffset: 0; stroke-linejoin: miter; stroke-miterlimit: 4; fill: none; fill-rule: nonzero; opacity: 0.15;" vector-effect="non-scaling-stroke"  transform=" translate(-789, -339)" d="M 789 0 L 789 678" stroke-linecap="round" />
</g>
		<g transform="matrix(1 0 0 1 244 0)" id="K7iSlv0gw5ExXbY1iIypi"  >
<path style="stroke: rgb(101,152,191); stroke-width: 28; stroke-dasharray: none; stroke-linecap: butt; stroke-dashoffset: 0; stroke-linejoin: miter; stroke-miterlimit: 4; fill: none; fill-rule: nonzero; opacity: 0.15;" vector-effect="non-scaling-stroke"  transform=" translate(-809, -339)" d="M 809 0 L 809 678" stroke-linecap="round" />
</g>
		<g transform="matrix(1 0 0 1 244 0)" id="lR4RSP8X7be7b5mIfLqQo"  >
<path style="stroke: rgb(101,152,191); stroke-width: 34; stroke-dasharray: none; stroke-linecap: butt; stroke-dashoffset: 0; stroke-linejoin: miter; stroke-miterlimit: 4; fill: none; fill-rule: nonzero; opacity: 0.15;" vector-effect="non-scaling-stroke"  transform=" translate(-809, -339)" d="M 809 0 L 809 678" stroke-linecap="round" />
</g>
		<g transform="matrix(1 0 0 1 261 0)" id="AlHD9VVnaJGNF2ygESajs"  >
<path style="stroke: rgb(101,152,191); stroke-width: 8; stroke-dasharray: none; stroke-linecap: butt; stroke-dashoffset: 0; stroke-linejoin: miter; stroke-miterlimit: 4; fill: none; fill-rule: nonzero; opacity: 0.15;" vector-effect="non-scaling-stroke"  transform=" translate(-826, -339)" d="M 826 0 L 826 678" stroke-linecap="round" />
</g>
		<g transform="matrix(1 0 0 1 269 0)" id="3uQPhdYAEFIhEGYToErZR"  >
<path style="stroke: rgb(101,152,191); stroke-width: 38; stroke-dasharray: none; stroke-linecap: butt; stroke-dashoffset: 0; stroke-linejoin: miter; stroke-miterlimit: 4; fill: none; fill-rule: nonzero; opacity: 0.15;" vector-effect="non-scaling-stroke"  transform=" translate(-834, -339)" d="M 834 0 L 834 678" stroke-linecap="round" />
</g>
		<g transform="matrix(1 0 0 1 279 0)" id="6Kbzg8zKcZTTuYerSsFFX"  >
<path style="stroke: rgb(101,152,191); stroke-width: 28; stroke-dasharray: none; stroke-linecap: butt; stroke-dashoffset: 0; stroke-linejoin: miter; stroke-miterlimit: 4; fill: none; fill-rule: nonzero; opacity: 0.15;" vector-effect="non-scaling-stroke"  transform=" translate(-844, -339)" d="M 844 0 L 844 678" stroke-linecap="round" />
</g>
		<g transform="matrix(1 0 0 1 287 0)" id="KJuulstMGhyFHtCJdekcD"  >
<path style="stroke: rgb(101,152,191); stroke-width: 26; stroke-dasharray: none; stroke-linecap: butt; stroke-dashoffset: 0; stroke-linejoin: miter; stroke-miterlimit: 4; fill: none; fill-rule: nonzero; opacity: 0.15;" vector-effect="non-scaling-stroke"  transform=" translate(-852, -339)" d="M 852 0 L 852 678" stroke-linecap="round" />
</g>
		<g transform="matrix(1 0 0 1 297 0)" id="P7xs4mfTVEzpW_l4r2Yon"  >
<path style="stroke: rgb(101,152,191); stroke-width: 9; stroke-dasharray: none; stroke-linecap: butt; stroke-dashoffset: 0; stroke-linejoin: miter; stroke-miterlimit: 4; fill: none; fill-rule: nonzero; opacity: 0.15;" vector-effect="non-scaling-stroke"  transform=" translate(-862, -339)" d="M 862 0 L 862 678" stroke-linecap="round" />
</g>
		<g transform="matrix(1 0 0 1 317 0)" id="h3tMzCqRlWIMv78mzPTWw"  >
<path style="stroke: rgb(101,152,191); stroke-width: 8; stroke-dasharray: none; stroke-linecap: butt; stroke-dashoffset: 0; stroke-linejoin: miter; stroke-miterlimit: 4; fill: none; fill-rule: nonzero; opacity: 0.15;" vector-effect="non-scaling-stroke"  transform=" translate(-882, -339)" d="M 882 0 L 882 678" stroke-linecap="round" />
</g>
		<g transform="matrix(1 0 0 1 325 0)" id="7FqN0VWSxHizCamGeEpp_"  >
<path style="stroke: rgb(101,152,191); stroke-width: 44; stroke-dasharray: none; stroke-linecap: butt; stroke-dashoffset: 0; stroke-linejoin: miter; stroke-miterlimit: 4; fill: none; fill-rule: nonzero; opacity: 0.15;" vector-effect="non-scaling-stroke"  transform=" translate(-890, -339)" d="M 890 0 L 890 678" stroke-linecap="round" />
</g>
		<g transform="matrix(1 0 0 1 327 0)" id="SYuwEPA6LiRkeJLANTDMW"  >
<path style="stroke: rgb(101,152,191); stroke-width: 43; stroke-dasharray: none; stroke-linecap: butt; stroke-dashoffset: 0; stroke-linejoin: miter; stroke-miterlimit: 4; fill: none; fill-rule: nonzero; opacity: 0.15;" vector-effect="non-scaling-stroke"  transform=" translate(-892, -339)" d="M 892 0 L 892 678" stroke-linecap="round" />
</g>
		<g transform="matrix(1 0 0 1 329 0)" id="yIrB1CAVDyhLUMjs-ueGQ"  >
<path style="stroke: rgb(101,152,191); stroke-width: 50; stroke-dasharray: none; stroke-linecap: butt; stroke-dashoffset: 0; stroke-linejoin: miter; stroke-miterlimit: 4; fill: none; fill-rule: nonzero; opacity: 0.15;" vector-effect="non-scaling-stroke"  transform=" translate(-894, -339)" d="M 894 0 L 894 678" stroke-linecap="round" />
</g>
		<g transform="matrix(1 0 0 1 335 0)" id="Fdbrbw4ZbVtJtFQVhkN5y"  >
<path style="stroke: rgb(101,152,191); stroke-width: 37; stroke-dasharray: none; stroke-linecap: butt; stroke-dashoffset: 0; stroke-linejoin: miter; stroke-miterlimit: 4; fill: none; fill-rule: nonzero; opacity: 0.15;" vector-effect="non-scaling-stroke"  transform=" translate(-900, -339)" d="M 900 0 L 900 678" stroke-linecap="round" />
</g>
		<g transform="matrix(1 0 0 1 335 0)" id="1zIOoYNcPscJhhi6Nofht"  >
<path style="stroke: rgb(101,152,191); stroke-width: 12; stroke-dasharray: none; stroke-linecap: butt; stroke-dashoffset: 0; stroke-linejoin: miter; stroke-miterlimit: 4; fill: none; fill-rule: nonzero; opacity: 0.15;" vector-effect="non-scaling-stroke"  transform=" translate(-900, -339)" d="M 900 0 L 900 678" stroke-linecap="round" />
</g>
		<g transform="matrix(1 0 0 1 345 0)" id="AdDt_qA5CsPFehHPqG670"  >
<path style="stroke: rgb(101,152,191); stroke-width: 19; stroke-dasharray: none; stroke-linecap: butt; stroke-dashoffset: 0; stroke-linejoin: miter; stroke-miterlimit: 4; fill: none; fill-rule: nonzero; opacity: 0.15;" vector-effect="non-scaling-stroke"  transform=" translate(-910, -339)" d="M 910 0 L 910 678" stroke-linecap="round" />
</g>
		<g transform="matrix(1 0 0 1 359 0)" id="fBwIbeklVzewOUt38Kh9l"  >
<path style="stroke: rgb(101,152,191); stroke-width: 18; stroke-dasharray: none; stroke-linecap: butt; stroke-dashoffset: 0; stroke-linejoin: miter; stroke-miterlimit: 4; fill: none; fill-rule: nonzero; opacity: 0.15;" vector-effect="non-scaling-stroke"  transform=" translate(-924, -339)" d="M 924 0 L 924 678" stroke-linecap="round" />
</g>
		<g transform="matrix(1 0 0 1 366 0)" id="tjP-wyNoh-GjSBVBYWEDi"  >
<path style="stroke: rgb(101,152,191); stroke-width: 26; stroke-dasharray: none; stroke-linecap: butt; stroke-dashoffset: 0; stroke-linejoin: miter; stroke-miterlimit: 4; fill: none; fill-rule: nonzero; opacity: 0.15;" vector-effect="non-scaling-stroke"  transform=" translate(-931, -339)" d="M 931 0 L 931 678" stroke-linecap="round" />
</g>
		<g transform="matrix(1 0 0 1 377 0)" id="KTWmm_5RIEtgoeGJf8uKo"  >
<path style="stroke: rgb(101,152,191); stroke-width: 30; stroke-dasharray: none; stroke-linecap: butt; stroke-dashoffset: 0; stroke-linejoin: miter; stroke-miterlimit: 4; fill: none; fill-rule: nonzero; opacity: 0.15;" vector-effect="non-scaling-stroke"  transform=" translate(-942, -339)" d="M 942 0 L 942 678" stroke-linecap="round" />
</g>
		<g transform="matrix(1 0 0 1 378 0)" id="FvD1jcVLMAGyJhAUIYI8V"  >
<path style="stroke: rgb(101,152,191); stroke-width: 21; stroke-dasharray: none; stroke-linecap: butt; stroke-dashoffset: 0; stroke-linejoin: miter; stroke-miterlimit: 4; fill: none; fill-rule: nonzero; opacity: 0.15;" vector-effect="non-scaling-stroke"  transform=" translate(-943, -339)" d="M 943 0 L 943 678" stroke-linecap="round" />
</g>
		<g transform="matrix(1 0 0 1 394 0)" id="FDQOGU9rnkSzupvCOgqfZ"  >
<path style="stroke: rgb(101,152,191); stroke-width: 42; stroke-dasharray: none; stroke-linecap: butt; stroke-dashoffset: 0; stroke-linejoin: miter; stroke-miterlimit: 4; fill: none; fill-rule: nonzero; opacity: 0.15;" vector-effect="non-scaling-stroke"  transform=" translate(-959, -339)" d="M 959 0 L 959 678" stroke-linecap="round" />
</g>
		<g transform="matrix(1 0 0 1 402 0)" id="CswXvD6iatLc52X6yof5s"  >
<path style="stroke: rgb(101,152,191); stroke-width: 35; stroke-dasharray: none; stroke-linecap: butt; stroke-dashoffset: 0; stroke-linejoin: miter; stroke-miterlimit: 4; fill: none; fill-rule: nonzero; opacity: 0.15;" vector-effect="non-scaling-stroke"  transform=" translate(-967, -339)" d="M 967 0 L 967 678" stroke-linecap="round" />
</g>
		<g transform="matrix(1 0 0 1 420 0)" id="aqRXg5kcFv8Qlli2uA30Z"  >
<path style="stroke: rgb(101,152,191); stroke-width: 42; stroke-dasharray: none; stroke-linecap: butt; stroke-dashoffset: 0; stroke-linejoin: miter; stroke-miterlimit: 4; fill: none; fill-rule: nonzero; opacity: 0.15;" vector-effect="non-scaling-stroke"  transform=" translate(-985, -339)" d="M 985 0 L 985 678" stroke-linecap="round" />
</g>
		<g transform="matrix(1 0 0 1 422 0)" id="svekTO0biqAO8CTNnU0kp"  >
<path style="stroke: rgb(101,152,191); stroke-width: 25; stroke-dasharray: none; stroke-linecap: butt; stroke-dashoffset: 0; stroke-linejoin: miter; stroke-miterlimit: 4; fill: none; fill-rule: nonzero; opacity: 0.15;" vector-effect="non-scaling-stroke"  transform=" translate(-987, -339)" d="M 987 0 L 987 678" stroke-linecap="round" />
</g>
		<g transform="matrix(1 0 0 1 438 0)" id="moU6F4INc2Wkh_sgeWvO0"  >
<path style="stroke: rgb(101,152,191); stroke-width: 13; stroke-dasharray: none; stroke-linecap: butt; stroke-dashoffset: 0; stroke-linejoin: miter; stroke-miterlimit: 4; fill: none; fill-rule: nonzero; opacity: 0.15;" vector-effect="non-scaling-stroke"  transform=" translate(-1003, -339)" d="M 1003 0 L 1003 678" stroke-linecap="round" />
</g>
		<g transform="matrix(1 0 0 1 447 0)" id="crb3yzXYdkJVLbmalFxOs"  >
<path style="stroke: rgb(101,152,191); stroke-width: 41; stroke-dasharray: none; stroke-linecap: butt; stroke-dashoffset: 0; stroke-linejoin: miter; stroke-miterlimit: 4; fill: none; fill-rule: nonzero; opacity: 0.15;" vector-effect="non-scaling-stroke"  transform=" translate(-1012, -339)" d="M 1012 0 L 1012 678" stroke-linecap="round" />
</g>
		<g transform="matrix(1 0 0 1 457 0)" id="Hm3Acrm8h0QpvmBS4HhUD"  >
<path style="stroke: rgb(101,152,191); stroke-width: 28; stroke-dasharray: none; stroke-linecap: butt; stroke-dashoffset: 0; stroke-linejoin: miter; stroke-miterlimit: 4; fill: none; fill-rule: nonzero; opacity: 0.15;" vector-effect="non-scaling-stroke"  transform=" translate(-1022, -339)" d="M 1022 0 L 1022 678" stroke-linecap="round" />
</g>
		<g transform="matrix(1 0 0 1 462 0)" id="rooh0x_1WtusKgPakvHc4"  >
<path style="stroke: rgb(101,152,191); stroke-width: 30; stroke-dasharray: none; stroke-linecap: butt; stroke-dashoffset: 0; stroke-linejoin: miter; stroke-miterlimit: 4; fill: none; fill-rule: nonzero; opacity: 0.15;" vector-effect="non-scaling-stroke"  transform=" translate(-1027, -339)" d="M 1027 0 L 1027 678" stroke-linecap="round" />
</g>
		<g transform="matrix(1 0 0 1 464 0)" id="dYtybujbommfzQkoQOLhr"  >
<path style="stroke: rgb(101,152,191); stroke-width: 25; stroke-dasharray: none; stroke-linecap: butt; stroke-dashoffset: 0; stroke-linejoin: miter; stroke-miterlimit: 4; fill: none; fill-rule: nonzero; opacity: 0.15;" vector-effect="non-scaling-stroke"  transform=" translate(-1029, -339)" d="M 1029 0 L 1029 678" stroke-linecap="round" />
</g>
		<g transform="matrix(1 0 0 1 465 0)" id="lcmuXdT8s0J3YLjsRISNL"  >
<path style="stroke: rgb(101,152,191); stroke-width: 22; stroke-dasharray: none; stroke-linecap: butt; stroke-dashoffset: 0; stroke-linejoin: miter; stroke-miterlimit: 4; fill: none; fill-rule: nonzero; opacity: 0.15;" vector-effect="non-scaling-stroke"  transform=" translate(-1030, -339)" d="M 1030 0 L 1030 678" stroke-linecap="round" />
</g>
		<g transform="matrix(1 0 0 1 484 0)" id="wP78HOrNaALg3HG_m8W7O"  >
<path style="stroke: rgb(101,152,191); stroke-width: 12; stroke-dasharray: none; stroke-linecap: butt; stroke-dashoffset: 0; stroke-linejoin: miter; stroke-miterlimit: 4; fill: none; fill-rule: nonzero; opacity: 0.15;" vector-effect="non-scaling-stroke"  transform=" translate(-1049, -339)" d="M 1049 0 L 1049 678" stroke-linecap="round" />
</g>
		<g transform="matrix(1 0 0 1 489 0)" id="ynRAYGcvowmenLIBXHPC_"  >
<path style="stroke: rgb(101,152,191); stroke-width: 33; stroke-dasharray: none; stroke-linecap: butt; stroke-dashoffset: 0; stroke-linejoin: miter; stroke-miterlimit: 4; fill: none; fill-rule: nonzero; opacity: 0.15;" vector-effect="non-scaling-stroke"  transform=" translate(-1054, -339)" d="M 1054 0 L 1054 678" stroke-linecap="round" />
</g>
		<g transform="matrix(1 0 0 1 493 0)" id="Xl0NJKPzUyCNkWBu0qJXX"  >
<path style="stroke: rgb(101,152,191); stroke-width: 45; stroke-dasharray: none; stroke-linecap: butt; stroke-dashoffset: 0; stroke-linejoin: miter; stroke-miterlimit: 4; fill: none; fill-rule: nonzero; opacity: 0.15;" vector-effect="non-scaling-stroke"  transform=" translate(-1058, -339)" d="M 1058 0 L 1058 678" stroke-linecap="round" />
</g>
		<g transform="matrix(1 0 0 1 500 0)" id="MCrp9ehJmhvxap6UguZip"  >
<path style="stroke: rgb(101,152,191); stroke-width: 40; stroke-dasharray: none; stroke-linecap: butt; stroke-dashoffset: 0; stroke-linejoin: miter; stroke-miterlimit: 4; fill: none; fill-rule: nonzero; opacity: 0.15;" vector-effect="non-scaling-stroke"  transform=" translate(-1065, -339)" d="M 1065 0 L 1065 678" stroke-linecap="round" />
</g>
		<g transform="matrix(1 0 0 1 520 0)" id="bZ2ghfWV8hJTW2pHHY5MY"  >
<path style="stroke: rgb(101,152,191); stroke-width: 32; stroke-dasharray: none; stroke-linecap: butt; stroke-dashoffset: 0; stroke-linejoin: miter; stroke-miterlimit: 4; fill: none; fill-rule: nonzero; opacity: 0.15;" vector-effect="non-scaling-stroke"  transform=" translate(-1085, -339)" d="M 1085 0 L 1085 678" stroke-linecap="round" />
</g>
		<g transform="matrix(1 0 0 1 530 0)" id="JqqmqNK3vknEpJQSBNH17"  >
<path style="stroke: rgb(101,152,191); stroke-width: 21; stroke-dasharray: none; stroke-linecap: butt; stroke-dashoffset: 0; stroke-linejoin: miter; stroke-miterlimit: 4; fill: none; fill-rule: nonzero; opacity: 0.15;" vector-effect="non-scaling-stroke"  transform=" translate(-1095, -339)" d="M 1095 0 L 1095 678" stroke-linecap="round" />
</g>
		<g transform="matrix(1 0 0 1 542 0)" id="wDDNNmXWl4S1nnVcYquUf"  >
<path style="stroke: rgb(101,152,191); stroke-width: 12; stroke-dasharray: none; stroke-linecap: butt; stroke-dashoffset: 0; stroke-linejoin: miter; stroke-miterlimit: 4; fill: none; fill-rule: nonzero; opacity: 0.15;" vector-effect="non-scaling-stroke"  transform=" translate(-1107, -339)" d="M 1107 0 L 1107 678" stroke-linecap="round" />
</g>
		<g transform="matrix(1 0 0 1 559 0)" id="ckvVycwwGd1TAbc5MIFe4"  >
<path style="stroke: rgb(101,152,191); stroke-width: 33; stroke-dasharray: none; stroke-linecap: butt; stroke-dashoffset: 0; stroke-linejoin: miter; stroke-miterlimit: 4; fill: none; fill-rule: nonzero; opacity: 0.15;" vector-effect="non-scaling-stroke"  transform=" translate(-1124, -339)" d="M 1124 0 L 1124 678" stroke-linecap="round" />
</g>
		<g transform="matrix(1 0 0 1 576 0)" id="5lY-NeUi-nBkzGYbP9TVe"  >
<path style="stroke: rgb(101,152,191); stroke-width: 8; stroke-dasharray: none; stroke-linecap: butt; stroke-dashoffset: 0; stroke-linejoin: miter; stroke-miterlimit: 4; fill: none; fill-rule: nonzero; opacity: 0.15;" vector-effect="non-scaling-stroke"  transform=" translate(-1141, -339)" d="M 1141 0 L 1141 678" stroke-linecap="round" />
</g>
</g>
</g>
</svg>